<svg width="320" height="568" viewBox="0 0 320 568" fill="none" xmlns="http://www.w3.org/2000/svg">
<path d="M-11.3474 88.8225L2.84794 74.6358L17.0432 88.8225L31.2385 74.6358L45.4338 88.8225" stroke="#F2F2F2" stroke-width="3" stroke-linecap="round" stroke-linejoin="round"/>
<path d="M109.884 50.8282L112.206 46.8491C114.497 42.9251 119.88 42.2285 123.093 45.4403V45.4403C126.715 49.06 132.876 47.6387 134.546 42.7982L135.827 39.0875" stroke="#F2F2F2" stroke-width="3" stroke-linecap="round" stroke-linejoin="round"/>
<path d="M34.9913 160.245L37.3139 164.225C39.6042 168.149 44.9872 168.845 48.2009 165.633V165.633C51.8228 162.014 57.984 163.435 59.6541 168.275L60.9344 171.986" stroke="#F2F2F2" stroke-width="3" stroke-linecap="round" stroke-linejoin="round"/>
<path d="M366.891 117.376L356.853 100.001L339.467 110.032L329.43 92.6574L312.044 102.689" stroke="#F2F2F2" stroke-width="3" stroke-linecap="round" stroke-linejoin="round"/>
<path d="M269.866 36.6976L275.062 17.3182L294.453 22.5109L299.649 3.13144L319.04 8.32414" stroke="#F2F2F2" stroke-width="3" stroke-linecap="round" stroke-linejoin="round"/>
<path d="M142.811 179.487C142.811 186.673 136.982 192.5 129.79 192.5C122.597 192.5 116.768 186.673 116.768 179.487C116.768 172.301 122.597 166.474 129.79 166.474C136.982 166.474 142.811 172.301 142.811 179.487Z" stroke="#F2F2F2" stroke-width="3"/>
<path d="M255.854 145.82L255.842 145.813L255.83 145.806L254.523 144.992L254.161 144.766L254.214 144.343C254.385 142.976 254.153 141.56 253.422 140.293L248.089 131.062C246.302 127.97 242.329 126.895 239.267 128.662L230.096 133.954C227.034 135.72 225.979 139.696 227.765 142.788L233.098 152.02C234.884 155.112 238.858 156.186 241.92 154.42L251.09 149.128C251.751 148.747 252.566 148.318 252.877 148.168C253.144 148.016 253.804 147.707 254.573 147.49C255.156 147.326 255.894 147.187 256.6 147.273C256.589 147.223 256.577 147.168 256.562 147.111C256.487 146.825 256.371 146.522 256.229 146.271C256.079 146.006 255.94 145.869 255.854 145.82ZM256.642 147.726C256.64 147.733 256.64 147.737 256.64 147.737C256.64 147.737 256.641 147.734 256.642 147.726ZM250.697 139.546L250.699 139.55C250.755 139.648 250.842 139.807 250.945 140.012C251.065 140.237 251.162 140.463 251.246 140.68C251.248 140.684 251.251 140.69 251.254 140.697C251.313 140.838 251.552 141.403 251.584 141.924L251.622 142.517L251.037 142.622C250.953 142.637 250.79 142.704 250.566 142.856C250.411 142.961 250.253 143.087 250.106 143.22C250.233 143.262 250.358 143.308 250.479 143.357C250.983 143.559 251.499 143.83 251.957 144.094C252.417 144.359 252.83 144.626 253.127 144.825C253.276 144.925 253.397 145.009 253.481 145.068C253.523 145.098 253.556 145.122 253.578 145.138L253.605 145.157L253.612 145.162L253.614 145.164L253.615 145.164L253.615 145.164C253.615 145.164 253.615 145.164 253.222 145.703L253.615 145.164L253.137 146.364C252.943 146.339 252.641 146.372 252.234 146.487C251.839 146.599 251.398 146.772 250.948 146.977C250.055 147.383 249.185 147.885 248.655 148.191L248.644 148.197L242.336 151.837C239.423 153.518 235.665 152.492 233.976 149.569L230.308 143.22C228.619 140.297 229.61 136.531 232.523 134.85L238.831 131.21C241.744 129.529 245.503 130.555 247.191 133.478L250.697 139.546Z" fill="#F2F2F2" stroke="#F2F2F2"/>
<path d="M195.043 69.643L203.646 64.5676L203.549 74.5511L203.452 84.6212L194.908 79.6918L186.365 74.7624L195.043 69.643Z" stroke="#F2F2F2" stroke-width="3"/>
<rect width="319" height="201" fill="url(#paint0_linear)"/>
<path d="M73.8837 551.828L76.2063 547.849C78.4966 543.925 83.8796 543.229 87.0933 546.44V546.44C90.7152 550.06 96.8764 548.639 98.5465 543.798L99.8268 540.087" stroke="#E8E8E8" stroke-width="3" stroke-linecap="round" stroke-linejoin="round"/>
<path d="M121.201 424.963L118.879 420.984C116.588 417.06 111.205 416.363 107.992 419.575V419.575C104.37 423.195 98.2087 421.773 96.5385 416.933L95.2582 413.222" stroke="#E8E8E8" stroke-width="3" stroke-linecap="round" stroke-linejoin="round"/>
<path d="M186.243 476.905L186.23 476.898L186.219 476.891L184.911 476.077L184.549 475.851L184.602 475.428C184.773 474.062 184.541 472.645 183.81 471.379L178.477 462.147C176.691 459.055 172.717 457.981 169.655 459.747L160.485 465.039C157.423 466.806 156.367 470.782 158.153 473.874L163.486 483.105C165.273 486.197 169.246 487.272 172.308 485.505L181.479 480.213C182.139 479.832 182.955 479.403 183.266 479.254C183.532 479.101 184.192 478.792 184.961 478.575C185.544 478.411 186.283 478.273 186.988 478.359C186.977 478.308 186.965 478.254 186.95 478.197C186.876 477.91 186.759 477.607 186.617 477.357C186.467 477.092 186.328 476.954 186.243 476.905ZM187.03 478.811C187.028 478.818 187.028 478.822 187.028 478.823C187.028 478.823 187.029 478.819 187.03 478.811ZM181.085 470.631L181.087 470.635C181.143 470.733 181.23 470.893 181.333 471.097C181.453 471.323 181.55 471.549 181.634 471.765C181.636 471.77 181.639 471.776 181.642 471.783C181.701 471.923 181.94 472.488 181.973 473.01L182.01 473.603L181.425 473.707C181.341 473.722 181.178 473.79 180.954 473.942C180.799 474.046 180.641 474.173 180.494 474.305C180.621 474.347 180.746 474.394 180.868 474.442C181.371 474.644 181.887 474.915 182.345 475.179C182.805 475.445 183.218 475.711 183.515 475.911C183.664 476.011 183.785 476.095 183.869 476.154C183.911 476.183 183.944 476.207 183.967 476.223L183.993 476.242L184 476.247L184.002 476.249L184.003 476.249L184.003 476.25C184.003 476.25 184.003 476.25 183.61 476.788L184.003 476.25L183.525 477.449C183.331 477.424 183.029 477.457 182.622 477.572C182.227 477.684 181.786 477.858 181.336 478.062C180.443 478.469 179.573 478.97 179.043 479.276L179.032 479.283L172.724 482.922C169.811 484.603 166.053 483.578 164.364 480.655L160.696 474.305C159.007 471.382 159.998 467.616 162.911 465.935L169.219 462.296C172.132 460.615 175.891 461.64 177.579 464.563L181.085 470.631Z" fill="#F2F2F2" stroke="#F2F2F2"/>
<path d="M24.4237 399.922L21.745 390.304L31.3686 392.981L41.0768 395.681L34.1014 402.653L27.126 409.624L24.4237 399.922Z" stroke="#F2F2F2" stroke-width="3"/>
<path d="M227.079 409.957L231.99 418.652L236.901 409.957L241.855 401.188H231.99H222.125L227.079 409.957Z" stroke="#F2F2F2" stroke-width="3"/>
<path fill-rule="evenodd" clip-rule="evenodd" d="M342 543.353C341.496 539.628 338.546 537.35 335.086 536.667C331.582 535.976 326.492 536.931 324.048 539.668L323.31 540.495L323.309 539.441C323.304 533.001 320.981 528.598 317.632 525.88C314.278 523.159 309.849 522.092 305.555 522.402C301.258 522.712 297.128 524.4 294.384 527.152C291.666 529.877 290.288 533.663 291.47 538.25C293.16 538.93 294.674 540.224 295.716 542.253C295.81 542.438 295.719 542.655 295.51 542.739C295.302 542.823 295.057 542.741 294.962 542.557C293.748 540.193 291.887 538.969 289.945 538.559C287.99 538.145 285.909 538.546 284.253 539.508C282.598 540.469 281.396 541.975 281.162 543.746C280.928 545.51 281.647 547.602 283.974 549.754C284.132 549.901 284.126 550.133 283.961 550.273C283.796 550.413 283.533 550.408 283.375 550.261C280.917 547.988 280.071 545.688 280.339 543.661C280.504 542.413 281.088 541.293 281.941 540.369C282.896 538.505 282.732 536.795 281.928 535.398C281.118 533.988 279.643 532.877 277.953 532.266C276.263 531.654 274.396 531.555 272.808 532.119C271.235 532.678 269.881 533.906 269.233 536.047L268.433 535.857C271.681 525.124 265.13 517.603 256.734 514.97C248.318 512.331 238.122 514.617 234.014 523.502C234.002 523.528 233.987 523.551 233.97 523.573C235.755 525.474 237.008 527.788 237.49 530.505C237.526 530.705 237.371 530.892 237.145 530.924C236.919 530.955 236.707 530.819 236.672 530.619C235.832 525.892 232.537 522.437 228.119 520.32C223.673 518.184 218.172 517.425 212.891 518.095C207.628 518.76 202.677 520.851 199.399 524.413C196.13 527.966 194.486 533.022 195.91 539.692L195.103 539.855C193.823 535.627 188.888 533.988 184.152 534.438C181.787 534.66 179.574 535.383 177.928 536.555C176.308 537.704 175.309 539.25 175.376 541.12C175.383 541.322 175.204 541.491 174.975 541.498C174.747 541.504 174.555 541.345 174.548 541.143C174.472 538.997 175.63 537.244 177.41 535.983C177.809 535.702 178.242 535.443 178.703 535.209C178.682 535.179 178.665 535.146 178.655 535.111C176.652 528.496 168.859 525.359 161.431 526.015C157.711 526.34 154.18 527.59 151.513 529.832C148.869 532.047 147.113 535.223 147.048 539.411L146.234 539.501C144.942 535.233 140.72 533.579 136.803 533.962C132.866 534.347 129.409 536.76 129.544 540.521C129.545 540.565 129.538 540.608 129.523 540.648C129.749 540.799 129.967 540.957 130.178 541.124C131.97 542.54 133.2 544.526 133.261 546.964C133.322 549.397 132.219 552.235 129.452 555.367C129.311 555.527 129.051 555.555 128.871 555.43C128.69 555.305 128.658 555.075 128.799 554.915C131.486 551.875 132.488 549.198 132.432 546.98C132.377 544.768 131.268 542.968 129.627 541.671C126.305 539.047 120.909 538.541 117.791 540.806L117.292 541.169L117.128 540.616C115.786 536.101 110.567 534.333 105.81 535.188C103.423 535.613 101.251 536.661 99.745 538.358C98.2569 540.024 97.4511 542.31 97.9234 545.213C97.9432 545.334 97.8931 545.451 97.7999 545.53C98.8106 547.049 99.2721 548.951 98.8876 551.164C98.8528 551.364 98.6418 551.501 98.4158 551.47C98.1897 551.439 98.0342 551.252 98.069 551.052C98.7306 547.245 96.6907 544.491 93.7323 543.135C90.7539 541.771 86.8456 541.827 83.8034 543.692L83.3175 543.99L83.1676 543.484C81.8255 538.969 76.6067 537.201 71.8496 538.056C69.4627 538.481 67.2905 539.529 65.7845 541.226C64.2964 542.892 63.4906 545.178 63.9629 548.08C63.9955 548.281 63.8382 548.467 63.6118 548.496C63.3855 548.524 63.1758 548.385 63.1432 548.185C62.641 545.098 63.4954 542.606 65.1347 540.771C66.7562 538.968 69.1788 537.792 71.6851 537.337C71.731 537.329 71.7766 537.321 71.8226 537.313C71.6241 534.254 69.4461 531.41 66.5147 529.818C63.5177 528.19 59.798 527.9 56.6591 529.969L55.7041 530.599L56.0115 529.58C57.8892 523.359 56.9327 518.573 54.4919 515.181C52.0475 511.784 48.0817 509.738 43.8436 509.054C39.6025 508.369 35.1197 509.053 31.6644 511.082C28.2215 513.104 25.7751 516.473 25.602 521.22C25.5946 521.423 25.403 521.581 25.1744 521.575C24.9458 521.568 24.7669 521.399 24.7743 521.197C24.9355 516.772 26.9892 513.448 30.0126 511.251C28.8844 506.95 26.0349 504.292 22.5352 502.985C18.9672 501.652 14.6896 501.711 10.8209 502.926C6.9533 504.141 3.53288 506.498 1.65721 509.715C-0.209585 512.917 -0.568747 517.01 1.74888 521.757C2.64341 521.846 3.53948 522.042 4.4193 522.357C7.24684 523.367 9.86026 525.581 11.7214 529.287C11.8144 529.472 11.7201 529.689 11.5111 529.771C11.3021 529.853 11.0578 529.77 10.9649 529.585C9.17192 526.014 6.6978 523.962 4.10923 523.037C1.51875 522.111 -1.23398 522.297 -3.62593 523.282C-8.41694 525.255 -11.7142 530.409 -9.24504 536.14L-9.02124 536.659C-13.619 537.444 -20 538.566 -20 538.566V568H342C342 560.667 342 556.144 342 543.353ZM177.33 547.543C178.725 548.704 179.655 550.372 179.69 552.584L180.504 552.674C181.174 550.473 183.358 549.613 185.411 549.813C187.484 550.014 189.245 551.266 189.176 553.174C189.169 553.376 189.348 553.546 189.577 553.552C189.805 553.558 189.997 553.4 190.004 553.197C190.091 550.778 187.843 549.311 185.502 549.084C183.602 548.899 181.523 549.511 180.367 551.126C180.026 549.41 179.131 548.036 177.897 547.009C176.358 545.735 174.252 544.989 172.148 544.801C167.931 544.43 163.328 546.195 162.134 550.117C162.075 550.313 162.205 550.514 162.426 550.567C162.647 550.619 162.874 550.504 162.934 550.308C163.986 546.851 168.096 545.182 172.066 545.531C174.056 545.702 175.913 546.354 177.33 547.543Z" fill="#F2F2F2"/>
<defs>
<linearGradient id="paint0_linear" x1="159.5" y1="0" x2="159.5" y2="201" gradientUnits="userSpaceOnUse">
<stop stop-color="#C4C4C4" stop-opacity="0"/>
<stop offset="1" stop-color="#FAFAFA" stop-opacity="0.45"/>
</linearGradient>
</defs>
</svg>
