<svg width="24" height="24" viewBox="0 0 24 24" fill="none" xmlns="http://www.w3.org/2000/svg">
<mask id="path-1-inside-1" fill="white">
<path d="M4 21C4 21.5523 4.44772 22 5 22H14C14.5523 22 15 21.5523 15 21V17H19C19.5523 17 20 16.5523 20 16L19.9999 2.99999C19.9999 2.44771 19.5522 2 18.9999 2H5.00004C4.44776 2 4.00005 2.44771 4.00004 3L4 21Z"/>
</mask>
<path d="M15 17H13.5C13.5 16.1716 14.1716 15.5 15 15.5V17ZM19.9999 2.99999L21.4999 2.99998L19.9999 2.99999ZM20 16L18.5 16L20 16ZM18.9999 3.5H5.00004V0.5H18.9999V3.5ZM2.5 21L2.50004 2.99999L5.50004 3L5.5 21L2.5 21ZM5 20.5H14V23.5H5V20.5ZM13.5 21V17H16.5V21H13.5ZM15 15.5H19V18.5H15V15.5ZM18.5 16L18.4999 3L21.4999 2.99998L21.5 16L18.5 16ZM14 20.5C13.7239 20.5 13.5 20.7239 13.5 21H16.5C16.5 22.3807 15.3807 23.5 14 23.5V20.5ZM5.5 21C5.5 20.7239 5.27615 20.5 5 20.5V23.5C3.61929 23.5 2.5 22.3807 2.5 21L5.5 21ZM18.9999 0.5C20.3806 0.5 21.4999 1.61927 21.4999 2.99998L18.4999 3C18.4999 3.27615 18.7237 3.5 18.9999 3.5V0.5ZM19 15.5C18.7238 15.5 18.5 15.7239 18.5 16L21.5 16C21.5 17.3807 20.3807 18.5 19 18.5V15.5ZM5.00004 3.5C5.27619 3.5 5.50004 3.27614 5.50004 3L2.50004 2.99999C2.50005 1.61929 3.61933 0.5 5.00004 0.5V3.5Z" fill="#94CA62" mask="url(#path-1-inside-1)"/>
<path d="M15 22H14L15 17L20 16V17L15 22Z" fill="#94CA62"/>
<path d="M7.5 12.5C7.22386 12.5 7 12.2761 7 12C7 11.7239 7.22386 11.5 7.5 11.5V12.5ZM16.5 11.5C16.7761 11.5 17 11.7239 17 12C17 12.2761 16.7761 12.5 16.5 12.5V11.5ZM7.5 9.5C7.22386 9.5 7 9.27614 7 9C7 8.72386 7.22386 8.5 7.5 8.5V9.5ZM16.5 8.5C16.7761 8.5 17 8.72386 17 9C17 9.27614 16.7761 9.5 16.5 9.5V8.5ZM7.5 6.5C7.22386 6.5 7 6.27614 7 6C7 5.72386 7.22386 5.5 7.5 5.5V6.5ZM16.5 5.5C16.7761 5.5 17 5.72386 17 6C17 6.27614 16.7761 6.5 16.5 6.5V5.5ZM7.5 11.5H16.5V12.5H7.5V11.5ZM7.5 8.5H16.5V9.5H7.5V8.5ZM7.5 5.5H16.5V6.5H7.5V5.5Z" fill="#94CA62"/>
</svg>
