<svg width="16" height="9" viewBox="0 0 16 9" fill="none" xmlns="http://www.w3.org/2000/svg">
<path d="M6.77422 6.27328L6.08575 5.47144L5.37432 6.23204L6.06866 7.02799L6.77422 6.27328Z" fill="#94CA62"/>
<path d="M5.37432 7.77099L4.37334 8.84207C4.17193 9.05767 3.83453 9.05172 3.64019 8.82916L0.135063 4.81161C-0.0634234 4.60454 -0.0404742 4.2898 0.186332 4.10861C0.413139 3.92748 0.757621 3.94841 0.956108 4.15549L4.00005 7.70129L4.67974 6.97472L5.37432 7.77099Z" fill="#94CA62"/>
<path d="M6.78081 4.72832L7.46905 5.52985L11.878 0.812304C12.0679 0.598776 12.0323 0.285033 11.7986 0.111553C11.5648 -0.0619265 11.2212 -0.0295244 11.0313 0.184066L6.78081 4.72832Z" fill="#94CA62"/>
<path fill-rule="evenodd" clip-rule="evenodd" d="M15.7985 0.111549C16.0323 0.285046 16.0678 0.598796 15.8779 0.812329L8.37336 8.84207C8.17187 9.05766 7.83437 9.05172 7.6402 8.82917L4.13497 4.8116C3.93659 4.60454 3.95957 4.28982 4.18628 4.10864C4.41299 3.92746 4.75759 3.94845 4.95596 4.1555L8 7.7013L15.0312 0.184044C15.2212 -0.0294899 15.5647 -0.0619468 15.7985 0.111549Z" fill="#94CA62"/>
</svg>
