<svg width="20" height="20" viewBox="0 0 20 20" fill="none" xmlns="http://www.w3.org/2000/svg">
<path d="M19 9.25C19.4142 9.25 19.75 9.58579 19.75 10C19.75 10.4142 19.4142 10.75 19 10.75V9.25ZM1 10L0.469669 10.5303C0.176777 10.2374 0.176777 9.76256 0.469669 9.46967L1 10ZM7.53033 15.4697C7.82322 15.7626 7.82322 16.2374 7.53033 16.5303C7.23744 16.8232 6.76256 16.8232 6.46967 16.5303L7.53033 15.4697ZM6.46967 3.46967C6.76256 3.17678 7.23744 3.17678 7.53033 3.46967C7.82322 3.76256 7.82322 4.23744 7.53033 4.53033L6.46967 3.46967ZM19 10.75H1V9.25H19V10.75ZM1.53033 9.46967L7.53033 15.4697L6.46967 16.5303L0.469669 10.5303L1.53033 9.46967ZM0.469669 9.46967L6.46967 3.46967L7.53033 4.53033L1.53033 10.5303L0.469669 9.46967Z" fill="#94CA62"/>
</svg>
