<svg width="24" height="24" viewBox="0 0 24 24" fill="none" xmlns="http://www.w3.org/2000/svg">
<path d="M12.5 15C12.5 14.4084 12.8477 13.8721 13.3877 13.6306C13.9272 13.3894 14.448 12.7437 14.8271 11.5447C15.0007 10.9963 15.1235 10.3943 15.2051 9.78003C15.4504 10.3083 15.9631 10.687 16.5693 10.7429C16.2141 12.6125 15.4534 14.3501 14 15C14 15.5 14 16 14.5 16.1299L14.5054 16.1304C14.5374 16.1331 14.7083 16.1482 14.9746 16.1875C15.9678 16.334 18.2864 16.8137 19.6602 18.2183C20.2661 18.8379 20.5991 19.7351 20.7815 20.5C20.9788 21.3274 21 22 21 22H3C3 22 3.02124 21.3274 3.21851 20.5C3.40088 19.7351 3.73389 18.8379 4.33984 18.2183C5.71362 16.8137 8.03223 16.3337 9.02539 16.1875C9.29126 16.1484 9.46216 16.1331 9.49438 16.1304L9.5 16.1299C10 16 10 15.5 10 15C7.7605 13.9983 7.16528 10.4131 7.16528 7.74292C7.16528 4.57129 8.89771 2 12.0002 2C13.2849 2 14.3345 2.44092 15.1235 3.18262C15.0757 3.33838 15.05 3.50366 15.05 3.67505V4.69995H14.4709C14.449 4.66992 14.4265 4.64062 14.4038 4.61182C13.8665 3.9314 13.0906 3.5 12.0002 3.5C10.9097 3.5 10.134 3.9314 9.59644 4.61182C9.03003 5.3291 8.66528 6.41333 8.66528 7.74292C8.66528 8.98877 8.80664 10.3865 9.17285 11.5447C9.55225 12.7434 10.073 13.3894 10.6125 13.6306C11.1523 13.8723 11.5 14.4084 11.5 15L11.5002 15.0442C11.5012 15.2549 11.5032 15.7144 11.3716 16.1436C11.2903 16.4087 11.1428 16.7256 10.8691 17.0098C10.5872 17.3022 10.241 17.4873 9.8772 17.5818L9.74902 17.615L9.62061 17.625L9.60303 17.6267L9.51953 17.6355C9.44214 17.644 9.32373 17.6589 9.17407 17.6821C8.8728 17.7288 8.45312 17.8079 7.9873 17.9363C7.01196 18.2051 6.02783 18.6377 5.41211 19.2671C5.14526 19.54 4.92822 19.9819 4.77124 20.5H19.2288C19.0718 19.9819 18.8547 19.54 18.5879 19.2671C17.9722 18.6377 16.988 18.2051 16.0127 17.9363C15.5469 17.8079 15.1272 17.7288 14.8259 17.6821C14.6763 17.6589 14.5579 17.644 14.4805 17.6355L14.397 17.6267L14.3806 17.6252L14.251 17.615L14.1228 17.5818C13.759 17.4873 13.4128 17.3022 13.1309 17.0098C12.8572 16.7256 12.7097 16.4087 12.6284 16.1436C12.4968 15.7144 12.4988 15.2549 12.4998 15.0442L12.5 15Z" fill="#94CA62"/>
<path d="M16.7207 9.75C16.3501 9.74756 16.05 9.44653 16.05 9.07495V7.05005H14.0251C13.6521 7.05005 13.3501 6.7478 13.3501 6.375C13.3501 6.0022 13.6521 5.69995 14.0251 5.69995H16.05V3.67505C16.05 3.30225 16.3523 3 16.7251 3C17.0979 3 17.4001 3.30225 17.4001 3.67505V5.69995H19.425C19.7979 5.69995 20.1001 6.0022 20.1001 6.375C20.1001 6.7478 19.7979 7.05005 19.425 7.05005H17.4001V9.07495C17.4001 9.448 17.0979 9.75 16.7251 9.75H16.7207Z" fill="#94CA62"/>
</svg>
