<svg width="64" height="64" viewBox="0 0 64 64" fill="none" xmlns="http://www.w3.org/2000/svg">
<rect width="64" height="64" fill="#E5E5E5"/>
<g id="6.2.1 Create Group - Group Info" clip-path="url(#clip0)">
<rect width="320" height="568" transform="translate(-16 -88)" fill="white"/>
<g id="avatar and name">
<g id="ic_avatar_group">
<path id="Oval" fill-rule="evenodd" clip-rule="evenodd" d="M32 64C49.6731 64 64 49.6731 64 32C64 14.3269 49.6731 0 32 0C14.3269 0 0 14.3269 0 32C0 49.6731 14.3269 64 32 64Z" fill="#E8E8E8"/>
<g id="Mask Group">
<mask id="mask0" mask-type="alpha" maskUnits="userSpaceOnUse" x="0" y="0" width="64" height="64">
<path id="Oval_2" fill-rule="evenodd" clip-rule="evenodd" d="M32 64C49.6731 64 64 49.6731 64 32C64 14.3269 49.6731 0 32 0C14.3269 0 0 14.3269 0 32C0 49.6731 14.3269 64 32 64Z" fill="#E8E8E8"/>
</mask>
<g mask="url(#mask0)">
<path id="Union" fill-rule="evenodd" clip-rule="evenodd" d="M13.0977 46.1754C17.0793 44.4395 19.2625 38.5829 19.2625 33.9543C19.2625 28.4567 16.1826 24 10.6671 24C5.15161 24 2.07178 28.4567 2.07178 33.9543C2.07178 38.5826 4.25464 44.4388 8.23596 46.1751C8.07141 47.3967 7.46313 48.492 6.12732 48.492C6.12732 48.492 0.219727 48.9509 -2.95142 52.1118C-5.19385 54.3469 -5.33325 58.6667 -5.33325 58.6667H26.6667C26.6667 58.6667 26.5273 54.3469 24.2849 52.1118C21.1138 48.9509 15.2062 48.492 15.2062 48.492C13.8705 48.492 13.2622 47.3969 13.0977 46.1754Z" fill="#979797" fill-opacity="0.6"/>
<path id="Union_2" fill-rule="evenodd" clip-rule="evenodd" d="M55.7642 46.1754C59.7458 44.4394 61.9288 38.5829 61.9288 33.9543C61.9288 28.4567 58.849 24 53.3335 24C47.818 24 44.7382 28.4567 44.7382 33.9543C44.7382 38.5827 46.9211 44.4389 50.9025 46.1752C50.7379 47.3967 50.1296 48.492 48.7938 48.492C48.7938 48.492 42.8862 48.9509 39.7151 52.1118C37.4727 54.3469 37.3333 58.6667 37.3333 58.6667H69.3334C69.3334 58.6667 69.1937 54.3469 66.9515 52.1118C63.7803 48.9509 57.8727 48.492 57.8727 48.492C56.5369 48.492 55.9287 47.3968 55.7642 46.1754Z" fill="#979797" fill-opacity="0.6"/>
<path id="Union_3" fill-rule="evenodd" clip-rule="evenodd" d="M35.2412 41.3707C40.5497 38.9666 43.4602 30.858 43.4602 24.4496C43.4602 16.8375 39.3536 10.6667 31.9996 10.6667C24.6458 10.6667 20.5392 16.8375 20.5392 24.4496C20.5392 30.8584 23.45 38.9674 28.7589 41.371C28.5396 43.0623 27.7285 44.5788 25.9475 44.5788C25.9475 44.5788 18.0708 45.2141 13.8425 49.5908C10.8527 52.6855 10.6667 64.0002 10.6667 64.0002H53.3334C53.3334 64.0002 53.1475 52.6855 50.1577 49.5908C45.9294 45.2141 38.0526 44.5788 38.0526 44.5788C36.2715 44.5788 35.4606 43.0621 35.2412 41.3707Z" fill="#979797"/>
</g>
</g>
</g>
<circle id="Ellipse" opacity="0.7" cx="32" cy="32" r="32" fill="#333340"/>
<g id="upload_btn">
<g id="ic_image_attachment">
<g id="icon">
<path id="Rectangle 2" d="M23.75 24.8C23.75 24.2201 24.2201 23.75 24.8 23.75H39.2C39.7799 23.75 40.25 24.2201 40.25 24.8V36V39.2C40.25 39.7799 39.7799 40.25 39.2 40.25H24.8C24.2201 40.25 23.75 39.7799 23.75 39.2V36V24.8Z" stroke="white" stroke-width="1.5" stroke-linecap="round" stroke-linejoin="round"/>
<circle id="Ellipse_2" cx="29" cy="28" r="2" fill="white"/>
</g>
</g>
</g>
</g>
</g>
<defs>
<clipPath id="clip0">
<rect width="320" height="568" fill="white" transform="translate(-16 -88)"/>
</clipPath>
</defs>
</svg>
