<svg width="24" height="24" viewBox="0 0 24 24" fill="none" xmlns="http://www.w3.org/2000/svg">
<path fill-rule="evenodd" clip-rule="evenodd" d="M5.53027 4.46967C5.2373 4.17678 4.7627 4.17678 4.46973 4.46967C4.17676 4.76256 4.17676 5.23745 4.46973 5.53034L10.9395 12L4.46973 18.4697C4.17676 18.7626 4.17676 19.2374 4.46973 19.5303C4.7627 19.8232 5.2373 19.8232 5.53027 19.5303L12 13.0606L18.4697 19.5303C18.7627 19.8232 19.2373 19.8232 19.5303 19.5303C19.8232 19.2374 19.8232 18.7626 19.5303 18.4697L13.0605 12L19.5303 5.53034C19.8232 5.23745 19.8232 4.76256 19.5303 4.46967C19.2373 4.17678 18.7627 4.17678 18.4697 4.46967L12 10.9394L5.53027 4.46967Z" fill="#FF3B5E"/>
</svg>
