<svg width="24" height="24" viewBox="0 0 24 24" fill="none" xmlns="http://www.w3.org/2000/svg">
<path d="M18.2598 16.3987L18.0137 16.7483V17.1759C18.0137 17.6395 18.1198 18.1086 18.2517 18.5228C18.2125 18.4901 18.1789 18.4591 18.1508 18.4296L17.3477 17.5916L16.3987 18.2598C15.1548 19.1358 13.6394 19.65 12 19.65C11.9906 19.65 11.9813 19.65 11.9719 19.65C13.0929 18.6606 13.8 17.2128 13.8 15.6C13.8 12.6177 11.3823 10.2 8.4 10.2C6.78721 10.2 5.33943 10.9071 4.35 12.0281C4.35 12.0187 4.35 12.0094 4.35 12C4.35 7.7751 7.7751 4.35 12 4.35C13.0369 4.35 14.0257 4.55632 14.9274 4.93008C14.9525 4.44712 15.168 4.0147 15.5002 3.70598C14.4242 3.25137 13.2415 3 12 3C7.02935 3 3 7.02935 3 12C3 12.6994 3.07976 13.3801 3.23071 14.0336C3.08064 14.5293 3 15.0553 3 15.6C3 16.756 3.36321 17.8271 3.98174 18.7056C3.98174 19.0882 3.76904 19.612 3.54141 20.0624C3.28037 20.5794 3 21 3 21C3.2395 21 3.67302 20.8901 4.11204 20.7172C4.57236 20.5357 5.03884 20.285 5.29438 20.0183C6.17285 20.6368 7.24402 21 8.4 21C8.9447 21 9.47073 20.9194 9.96643 20.7693C10.6199 20.9202 11.3006 21 12 21C13.9266 21 15.7118 20.3947 17.1759 19.3637C17.6019 19.8082 18.3793 20.2263 19.1466 20.5287C19.8783 20.817 20.6008 21 21 21C21 21 20.5326 20.2991 20.0976 19.4373C19.7183 18.6865 19.3637 17.8135 19.3637 17.1759C20.3947 15.7118 21 13.9266 21 12C21 11.0005 20.8372 10.0392 20.5364 9.14092C20.2303 9.38152 19.8445 9.525 19.425 9.525H19.2407C19.5059 10.3013 19.65 11.1338 19.65 12C19.65 13.6394 19.1358 15.1548 18.2598 16.3987Z" fill="#94CA62"/>
<path d="M16.725 4.35C17.0979 4.35 17.4 4.65212 17.4 5.025V7.05H19.425C19.7979 7.05 20.1 7.35212 20.1 7.725C20.1 8.09788 19.7979 8.4 19.425 8.4H17.4V10.425C17.4 10.7979 17.0979 11.1 16.725 11.1C16.3521 11.1 16.05 10.7979 16.05 10.425V8.4H14.025C13.6521 8.4 13.35 8.09788 13.35 7.725C13.35 7.35212 13.6521 7.05 14.025 7.05H16.05V5.025C16.05 4.65212 16.3521 4.35 16.725 4.35Z" fill="#94CA62"/>
</svg>
