<svg width="24" height="24" viewBox="0 0 24 24" fill="none" xmlns="http://www.w3.org/2000/svg">
<path d="M21 11.25C21.4142 11.25 21.75 11.5858 21.75 12C21.75 12.4142 21.4142 12.75 21 12.75V11.25ZM3 12L2.46967 12.5303C2.17678 12.2374 2.17678 11.7626 2.46967 11.4697L3 12ZM9.53033 17.4697C9.82322 17.7626 9.82322 18.2374 9.53033 18.5303C9.23744 18.8232 8.76256 18.8232 8.46967 18.5303L9.53033 17.4697ZM8.46967 5.46967C8.76256 5.17678 9.23744 5.17678 9.53033 5.46967C9.82322 5.76256 9.82322 6.23744 9.53033 6.53033L8.46967 5.46967ZM21 12.75H3V11.25H21V12.75ZM3.53033 11.4697L9.53033 17.4697L8.46967 18.5303L2.46967 12.5303L3.53033 11.4697ZM2.46967 11.4697L8.46967 5.46967L9.53033 6.53033L3.53033 12.5303L2.46967 11.4697Z" fill="#94CA62"/>
</svg>
