<svg width="24" height="24" viewBox="0 0 24 24" fill="none" xmlns="http://www.w3.org/2000/svg">
<path d="M3 11.25C2.58579 11.25 2.25 11.5858 2.25 12C2.25 12.4142 2.58579 12.75 3 12.75V11.25ZM21 12L21.5303 12.5303C21.8232 12.2374 21.8232 11.7626 21.5303 11.4697L21 12ZM14.4697 17.4697C14.1768 17.7626 14.1768 18.2374 14.4697 18.5303C14.7626 18.8232 15.2374 18.8232 15.5303 18.5303L14.4697 17.4697ZM15.5303 5.46967C15.2374 5.17678 14.7626 5.17678 14.4697 5.46967C14.1768 5.76256 14.1768 6.23744 14.4697 6.53033L15.5303 5.46967ZM3 12.75H21V11.25H3V12.75ZM20.4697 11.4697L14.4697 17.4697L15.5303 18.5303L21.5303 12.5303L20.4697 11.4697ZM21.5303 11.4697L15.5303 5.46967L14.4697 6.53033L20.4697 12.5303L21.5303 11.4697Z" fill="#94CA62"/>
</svg>
