<svg width="24" height="24" viewBox="0 0 24 24" fill="none" xmlns="http://www.w3.org/2000/svg">
<path d="M12.9861 9.13137C13.1872 8.76923 13.0566 8.31266 12.6945 8.11161C12.3323 7.91056 11.8757 8.04115 11.6747 8.4033L12.9861 9.13137ZM9.2909 14.2423L9.94663 14.6064L9.2909 14.2423ZM12.5307 16.1876L13.1864 16.5516L12.5307 16.1876ZM16.7392 8.60679L16.0835 8.24276L16.7392 8.60679ZM11.0697 5.20264L11.7254 5.56668L11.0697 5.20264ZM6.62727 13.2046L7.283 13.5686L6.62727 13.2046ZM14.7267 18.0677L15.3824 18.4317L14.7267 18.0677ZM18.6557 12.5355C18.8568 12.1734 18.7262 11.7168 18.364 11.5158C18.0019 11.3147 17.5453 11.4453 17.3443 11.8075L18.6557 12.5355ZM15.5411 3.95664L15.9272 3.31364L15.5411 3.95664ZM11.6747 8.4033L8.63517 13.8783L9.94663 14.6064L12.9861 9.13137L11.6747 8.4033ZM13.1864 16.5516L17.395 8.97083L16.0835 8.24276L11.8749 15.8235L13.1864 16.5516ZM10.4139 4.83861L5.97154 12.8405L7.283 13.5686L11.7254 5.56668L10.4139 4.83861ZM15.3824 18.4317L18.6557 12.5355L17.3443 11.8075L14.0709 17.7036L15.3824 18.4317ZM7.9528 20.4907C10.5655 22.0594 13.8923 21.1157 15.3824 18.4317L14.0709 17.7036C12.9784 19.6715 10.5854 20.3217 8.72495 19.2047L7.9528 20.4907ZM5.97154 12.8405C4.49043 15.5084 5.35836 18.9329 7.9528 20.4907L8.72495 19.2047C6.84622 18.0766 6.18153 15.5527 7.283 13.5686L5.97154 12.8405ZM15.9272 3.31364C13.9855 2.14779 11.5166 2.85237 10.4139 4.83861L11.7254 5.56668C12.4305 4.29656 13.9655 3.88543 15.155 4.59964L15.9272 3.31364ZM17.395 8.97083C18.4887 7.00073 17.8506 4.46854 15.9272 3.31364L15.155 4.59964C16.3628 5.3248 16.7976 6.9565 16.0835 8.24276L17.395 8.97083ZM9.58947 17.5426C10.8602 18.3056 12.4711 17.8401 13.1864 16.5516L11.8749 15.8235C11.5572 16.3959 10.8801 16.5679 10.3616 16.2566L9.58947 17.5426ZM8.63517 13.8783C7.92883 15.1506 8.33698 16.7906 9.58947 17.5426L10.3616 16.2566C9.82484 15.9343 9.61993 15.1948 9.94663 14.6064L8.63517 13.8783Z" fill="#94CA62"/>
</svg>
