<svg width="20" height="20" viewBox="0 0 20 20" fill="none" xmlns="http://www.w3.org/2000/svg">
<circle cx="10" cy="10" r="9.5" fill="#FF3B5E" stroke="white"/>
<path fill-rule="evenodd" clip-rule="evenodd" d="M7.61358 6.55298C7.32069 6.26009 6.84582 6.26009 6.55292 6.55298C6.26003 6.84588 6.26003 7.32075 6.55292 7.61364L8.93926 9.99998L6.55292 12.3863C6.26003 12.6792 6.26003 13.1541 6.55292 13.447C6.84582 13.7399 7.32069 13.7399 7.61358 13.447L9.99992 11.0606L12.3863 13.447C12.6791 13.7399 13.154 13.7399 13.4469 13.447C13.7398 13.1541 13.7398 12.6792 13.4469 12.3863L11.0606 9.99998L13.4469 7.61364C13.7398 7.32075 13.7398 6.84588 13.4469 6.55298C13.154 6.26009 12.6791 6.26009 12.3863 6.55298L9.99992 8.93932L7.61358 6.55298Z" fill="white"/>
</svg>
