<svg width="24" height="24" viewBox="0 0 24 24" fill="none" xmlns="http://www.w3.org/2000/svg">
<path d="M8.94846 11.1722L8.94845 11.1722L4.05681 9.83298C3.96217 9.80707 3.86662 9.71698 3.84261 9.57491L2.75603 3.14412C2.73079 2.99475 2.78916 2.87798 2.87504 2.80972C2.95821 2.74362 3.05036 2.73169 3.14456 2.77854L21.0769 11.697C21.1818 11.7492 21.25 11.8563 21.25 12C21.25 12.1437 21.1818 12.2508 21.0769 12.303L3.14456 21.2215L3.47854 21.893L3.14455 21.2215C3.05036 21.2683 2.95821 21.2564 2.87504 21.1903C2.78916 21.122 2.73079 21.0052 2.75603 20.8559L3.84261 14.4251C3.86662 14.283 3.96217 14.1929 4.05681 14.167L8.94845 12.8278L8.94846 12.8278C9.38378 12.7086 9.57754 12.319 9.57754 12C9.57754 11.681 9.38378 11.2914 8.94846 11.1722Z" stroke="#94CA62" stroke-width="1.5" stroke-linecap="round"/>
</svg>
