<svg width="24" height="24" viewBox="0 0 24 24" fill="none" xmlns="http://www.w3.org/2000/svg">
<path d="M18.0137 16.7483L18.2598 16.3987C19.1358 15.1548 19.65 13.6394 19.65 12C19.65 11.1338 19.5059 10.3013 19.2407 9.525H19.425C19.8445 9.525 20.2303 9.38152 20.5364 9.14092C20.8372 10.0392 21 11.0005 21 12C21 13.9266 20.3947 15.7118 19.3637 17.1759C19.3637 17.8135 19.7183 18.6865 20.0976 19.4373C20.5326 20.2991 21 21 21 21C20.6008 21 19.8783 20.817 19.1466 20.5287C18.3793 20.2263 17.6019 19.8082 17.1759 19.3637C15.7118 20.3947 13.9266 21 12 21C7.02935 21 3 16.9707 3 12C3 7.02935 7.02935 3 12 3C13.2415 3 14.4242 3.25137 15.5002 3.70598C15.168 4.0147 14.9525 4.44712 14.9274 4.93008C14.0257 4.55632 13.0369 4.35 12 4.35C7.7751 4.35 4.35 7.7751 4.35 12C4.35 16.2249 7.7751 19.65 12 19.65C13.6394 19.65 15.1548 19.1358 16.3987 18.2598L17.3477 17.5916L18.1508 18.4296C18.1789 18.4591 18.2125 18.4901 18.2517 18.5228C18.1198 18.1086 18.0137 17.6395 18.0137 17.1759V16.7483Z" fill="#94CA62"/>
<path d="M17.4 5.025C17.4 4.65212 17.0979 4.35 16.725 4.35C16.3521 4.35 16.05 4.65212 16.05 5.025V7.05H14.025C13.6521 7.05 13.35 7.35212 13.35 7.725C13.35 8.09788 13.6521 8.4 14.025 8.4H16.05V10.425C16.05 10.7979 16.3521 11.1 16.725 11.1C17.0979 11.1 17.4 10.7979 17.4 10.425V8.4H19.425C19.7979 8.4 20.1 8.09788 20.1 7.725C20.1 7.35212 19.7979 7.05 19.425 7.05H17.4V5.025Z" fill="#94CA62"/>
</svg>
