<svg width="7" height="9" viewBox="0 0 7 9" fill="none" xmlns="http://www.w3.org/2000/svg">
<path d="M6 0.5C6 0.223858 6.22386 0 6.5 0C6.77614 0 7 0.223858 7 0.5V6.5C7 6.77614 6.77614 7 6.5 7C6.22386 7 6 6.77614 6 6.5V0.5Z" fill="#FF3B5E"/>
<path d="M6 8.5C6 8.22386 6.22386 8 6.5 8C6.77614 8 7 8.22386 7 8.5C7 8.77614 6.77614 9 6.5 9C6.22386 9 6 8.77614 6 8.5Z" fill="#FF3B5E"/>
<path d="M3 0.5C3 0.223858 3.22386 0 3.5 0C3.77614 0 4 0.223858 4 0.5V6.5C4 6.77614 3.77614 7 3.5 7C3.22386 7 3 6.77614 3 6.5V0.5Z" fill="#FF3B5E"/>
<path d="M3 8.5C3 8.22386 3.22386 8 3.5 8C3.77614 8 4 8.22386 4 8.5C4 8.77614 3.77614 9 3.5 9C3.22386 9 3 8.77614 3 8.5Z" fill="#FF3B5E"/>
<path d="M0 0.5C0 0.223858 0.223858 0 0.5 0C0.776142 0 1 0.223858 1 0.5V6.5C1 6.77614 0.776142 7 0.5 7C0.223858 7 0 6.77614 0 6.5V0.5Z" fill="#FF3B5E"/>
<path d="M0 8.5C0 8.22386 0.223858 8 0.5 8C0.776142 8 1 8.22386 1 8.5C1 8.77614 0.776142 9 0.5 9C0.223858 9 0 8.77614 0 8.5Z" fill="#FF3B5E"/>
</svg>
