<svg width="24" height="24" viewBox="0 0 24 24" fill="none" xmlns="http://www.w3.org/2000/svg">
<path d="M19.1999 20H20.1999C21.194 20 21.9999 19.1941 21.9999 18.2V12V4.8C21.9999 3.80589 21.194 3 20.1999 3H14.1999M16.1999 7H19.1999M16.1999 11H19.1999M3.99989 3C3.00578 3 2.19989 3.80589 2.19989 4.8V15" stroke="#94CA62" stroke-width="1.5" stroke-linecap="round" stroke-linejoin="round"/>
<mask id="path-2-inside-1" fill="white">
<path d="M10.9777 14.7C12.9686 13.7987 13.4977 10.5718 13.4977 8.16863C13.4977 5.31416 11.9578 3 9.20017 3C6.44236 3 4.90243 5.31416 4.90243 8.16863C4.90243 10.5718 5.43151 13.7985 7.42217 14.7C7.42217 15.15 7.42217 15.6 6.97773 15.7169C3.8622 15.9641 1.3019 17.7175 1.19995 21H17.2C17.2 21 17.1303 18.757 16.009 17.5964C14.4235 15.9551 11.4222 15.7169 11.4222 15.7169C10.9777 15.6 10.9777 15.15 10.9777 14.7Z"/>
</mask>
<path d="M10.9777 14.7L10.3591 13.3335C9.82248 13.5764 9.47773 14.111 9.47773 14.7H10.9777ZM7.42217 14.7H8.92217C8.92217 14.111 8.5775 13.5766 8.04099 13.3336L7.42217 14.7ZM6.97773 15.7169L7.0964 17.2122L7.22983 17.2016L7.35927 17.1676L6.97773 15.7169ZM1.19995 21L-0.299326 20.9534L-0.347359 22.5H1.19995V21ZM17.2 21V22.5H18.7473L18.6992 20.9534L17.2 21ZM16.009 17.5964L14.9301 18.6386L14.9302 18.6387L16.009 17.5964ZM11.4222 15.7169L11.0406 17.1676L11.1701 17.2016L11.3035 17.2122L11.4222 15.7169ZM11.9977 8.16863C11.9977 9.2821 11.8727 10.5254 11.5526 11.5501C11.2188 12.6183 10.7733 13.146 10.3591 13.3335L11.5964 16.0665C13.1731 15.3527 13.9875 13.8163 14.416 12.4449C14.8581 11.03 14.9977 9.45831 14.9977 8.16863H11.9977ZM9.20017 4.5C10.1109 4.5 10.7512 4.86083 11.2003 5.43652C11.679 6.05005 11.9977 6.99348 11.9977 8.16863H14.9977C14.9977 6.48931 14.5465 4.84842 13.5657 3.59125C12.5555 2.29625 11.047 1.5 9.20017 1.5V4.5ZM6.40242 8.16863C6.40242 6.99348 6.72115 6.05006 7.19979 5.43654C7.6489 4.86086 8.28928 4.5 9.20017 4.5V1.5C7.35325 1.5 5.84475 2.29622 4.83445 3.59123C3.85367 4.84841 3.40243 6.48931 3.40243 8.16863H6.40242ZM8.04099 13.3336C7.62679 13.146 7.18126 12.6182 6.84754 11.5501C6.52738 10.5254 6.40242 9.28209 6.40242 8.16863H3.40243C3.40243 9.45831 3.54201 11.0299 3.98406 12.4448C4.41254 13.8162 5.22689 15.3525 6.80335 16.0664L8.04099 13.3336ZM5.92217 14.7C5.92217 14.8222 5.92162 14.8851 5.91836 14.9354C5.91514 14.9852 5.91223 14.9606 5.93106 14.8984C5.95208 14.8291 6.00902 14.684 6.14821 14.5378C6.29615 14.3823 6.46563 14.3006 6.59619 14.2662L7.35927 17.1676C7.71205 17.0748 8.0482 16.8929 8.32113 16.6062C8.58533 16.3286 8.7256 16.021 8.80217 15.7683C8.9353 15.3289 8.92217 14.8595 8.92217 14.7H5.92217ZM1.19995 22.5H17.2V19.5H1.19995V22.5ZM17.2 21C18.6992 20.9534 18.6992 20.9531 18.6992 20.9527C18.6992 20.9526 18.6992 20.9522 18.6992 20.9519C18.6992 20.9514 18.6991 20.9508 18.6991 20.9502C18.6991 20.949 18.699 20.9476 18.699 20.9461C18.6989 20.9431 18.6987 20.9395 18.6986 20.9354C18.6983 20.9271 18.6978 20.9167 18.6972 20.9042C18.6961 20.8793 18.6943 20.8459 18.6917 20.805C18.6864 20.7233 18.6777 20.6108 18.6633 20.4743C18.6348 20.2033 18.583 19.8281 18.4889 19.4066C18.3123 18.6157 17.9388 17.4351 17.0877 16.5542L14.9302 18.6387C15.2005 18.9184 15.4224 19.4396 15.561 20.0603C15.6245 20.3446 15.6602 20.6027 15.6798 20.7885C15.6895 20.8804 15.6949 20.9522 15.6979 20.9977C15.6993 21.0204 15.7001 21.0364 15.7005 21.0448C15.7007 21.049 15.7008 21.0514 15.7008 21.0517C15.7009 21.0518 15.7008 21.0515 15.7008 21.0507C15.7008 21.0502 15.7008 21.0497 15.7008 21.049C15.7007 21.0487 15.7007 21.0483 15.7007 21.0479C15.7007 21.0477 15.7007 21.0473 15.7007 21.0472C15.7007 21.0469 15.7007 21.0466 17.2 21ZM17.0878 16.5543C16.0196 15.4484 14.5665 14.8873 13.5242 14.5964C12.9816 14.4449 12.4979 14.3527 12.1481 14.2978C11.9724 14.2703 11.8281 14.2519 11.7243 14.24C11.6724 14.2341 11.6304 14.2298 11.5995 14.2268C11.584 14.2253 11.5713 14.2242 11.5615 14.2233C11.5566 14.2229 11.5524 14.2225 11.5489 14.2223C11.5472 14.2221 11.5457 14.222 11.5443 14.2219C11.5437 14.2218 11.543 14.2218 11.5424 14.2217C11.5422 14.2217 11.5418 14.2217 11.5416 14.2217C11.5412 14.2216 11.5408 14.2216 11.4222 15.7169C11.3035 17.2122 11.3032 17.2122 11.3028 17.2121C11.3027 17.2121 11.3024 17.2121 11.3022 17.2121C11.3018 17.2121 11.3014 17.212 11.3011 17.212C11.3005 17.2119 11.3 17.2119 11.2998 17.2119C11.2992 17.2118 11.2994 17.2119 11.3002 17.2119C11.3018 17.2121 11.3062 17.2125 11.3131 17.2131C11.3269 17.2144 11.3509 17.2169 11.3842 17.2207C11.4507 17.2283 11.5533 17.2412 11.6837 17.2617C11.9461 17.3028 12.3119 17.3727 12.7178 17.4859C13.5725 17.7245 14.4129 18.1031 14.9301 18.6386L17.0878 16.5543ZM11.8037 14.2662C11.9343 14.3006 12.1038 14.3823 12.2517 14.5378C12.3909 14.684 12.4478 14.8291 12.4688 14.8984C12.4877 14.9606 12.4848 14.9852 12.4815 14.9354C12.4783 14.8851 12.4777 14.8222 12.4777 14.7H9.47773C9.47773 14.8595 9.4646 15.3289 9.59773 15.7683C9.6743 16.021 9.81457 16.3286 10.0788 16.6062C10.3517 16.8929 10.6879 17.0748 11.0406 17.1676L11.8037 14.2662ZM6.85906 14.2216C5.07098 14.3635 3.32919 14.9449 1.99135 16.0739C0.62043 17.2308 -0.235275 18.8911 -0.299326 20.9534L2.69923 21.0466C2.73713 19.8264 3.21255 18.9688 3.92615 18.3666C4.67282 17.7365 5.76895 17.3175 7.0964 17.2122L6.85906 14.2216Z" fill="#94CA62" mask="url(#path-2-inside-1)"/>
</svg>
