<svg width="156" height="163" viewBox="0 0 156 163" fill="none" xmlns="http://www.w3.org/2000/svg">
<path d="M110.233 98.352L112.448 160.938H98.2626L100.477 98.352C100.706 91.8796 97.7864 85.697 92.6429 81.7613L89.8806 79.6477L92.4597 75.1316L105.355 87.3897L118.25 75.1316L120.83 79.6477L118.067 81.7613C112.924 85.697 110.004 91.8796 110.233 98.352Z" fill="white" stroke="#979797" stroke-width="1.5" stroke-linecap="round" stroke-linejoin="round"/>
<path d="M118.251 94.4864C127.277 99.0025 139.528 94.4864 139.528 83.5187C149.199 83.5187 155.647 69.3251 149.199 60.938C159.516 51.2606 155.002 37.067 144.041 35.1315C149.199 27.3896 144.041 15.7767 133.08 19.0025C135.659 9.32512 123.409 2.22833 116.316 8.03478C113.737 -2.28777 96.9731 -0.352284 96.9731 8.03478C86.6568 1.5832 71.8271 8.03478 73.1166 19.0025C60.2212 17.7122 51.8392 35.1315 59.5765 44.1638C49.9048 51.9058 53.1288 68.0348 64.7346 69.3251C56.9974 76.4219 63.445 89.9703 73.1166 89.9703C76.9853 99.0026 86.6567 100.938 93.1044 94.4864" stroke="#979797" stroke-width="1.5" stroke-linecap="round" stroke-linejoin="round"/>
<path d="M103 37.5C103.5 37.5 104.5 38.5 105 39.5C105.5 38.5 106.5 37.5 107 37.5" stroke="#979797" stroke-linecap="round"/>
<path d="M88 22C88.5 22 89.5 23 90 24C90.5 23 91.5 22 92 22" stroke="#979797" stroke-linecap="round"/>
<path d="M120 62C120.5 62 121.5 63 122 64C122.5 63 123.5 62 124 62" stroke="#979797" stroke-linecap="round"/>
<path d="M138 72C138.5 72 139.5 73 140 74C140.5 73 141.5 72 142 72" stroke="#979797" stroke-linecap="round"/>
<path d="M97 58C97.5 58 98.5 59 99 60C99.5 59 100.5 58 101 58" stroke="#979797" stroke-linecap="round"/>
<path d="M119 22C119.5 22 120.5 23 121 24C121.5 23 122.5 22 123 22" stroke="#979797" stroke-linecap="round"/>
<path d="M132 42C132.5 42 133.5 43 134 44C134.5 43 135.5 42 136 42" stroke="#979797" stroke-linecap="round"/>
<path d="M93.8468 125.194H3.57904V132.935H93.8468V125.194Z" stroke="#979797" stroke-width="1.5" stroke-linejoin="round"/>
<path d="M93.8468 148.419H3.57904V156.161H93.8468V148.419Z" stroke="#979797" stroke-width="1.5" stroke-linejoin="round"/>
<path d="M10.0268 161V119.387L15.185 114.548L20.3431 119.387V161H10.0268Z" fill="white" stroke="#979797" stroke-width="1.5" stroke-linejoin="round"/>
<ellipse cx="15.1849" cy="128.742" rx="1.28954" ry="1.29032" fill="#C4C4C4"/>
<path d="M43.5548 161V119.387L48.713 114.548L53.8711 119.387V161H43.5548Z" fill="white" stroke="#979797" stroke-width="1.5" stroke-linejoin="round"/>
<path d="M60.3188 161V119.387L65.4769 114.548L70.6351 119.387V161H60.3188Z" fill="white" stroke="#979797" stroke-width="1.5" stroke-linejoin="round"/>
<path d="M77.0828 161V119.387L82.241 114.548L87.3991 119.387V161H77.0828Z" fill="white" stroke="#979797" stroke-width="1.5" stroke-linejoin="round"/>
<path d="M26.7908 161V119.387L31.949 114.548L37.1071 119.387V161H26.7908Z" fill="white" stroke="#979797" stroke-width="1.5" stroke-linejoin="round"/>
<ellipse cx="31.9489" cy="128.742" rx="1.28954" ry="1.29032" fill="#C4C4C4"/>
<ellipse cx="48.7129" cy="128.742" rx="1.28954" ry="1.29032" fill="#C4C4C4"/>
<ellipse cx="65.4769" cy="128.742" rx="1.28954" ry="1.29032" fill="#C4C4C4"/>
<ellipse cx="82.241" cy="128.742" rx="1.28954" ry="1.29032" fill="#C4C4C4"/>
<path d="M53.871 82.2903H48.7129V159.71H53.871V82.2903Z" fill="#7FAD54" stroke="#7FAD54"/>
<path d="M50.0025 82.2903V45.6774C50.0025 37.3932 43.2868 30.6774 35.0025 30.6774H26.3163C18.0321 30.6774 11.3163 37.3932 11.3163 45.6774V82.2903H50.0025Z" stroke="#7FAD54" stroke-width="1.5"/>
<path d="M48.7129 82.2903V45.6774C48.7129 37.3932 41.9972 30.6774 33.7129 30.6774H74.9782C83.2624 30.6774 89.9782 37.3932 89.9782 45.6774V82.2903H48.7129Z" fill="#94CA62" stroke="#7FAD54" stroke-width="1.5"/>
<path d="M65.4769 21.6452H52.5815V28.0968H65.4769V21.6452Z" fill="#94CA62"/>
<path d="M52.5815 55.1935V28.0968M52.5815 28.0968V21.6452H65.4769V28.0968H52.5815Z" stroke="#7FAD54" stroke-width="1.5" stroke-linecap="round" stroke-linejoin="round"/>
<path d="M66.1217 149.588C66.1217 139.266 50.6473 139.266 47.4234 146.363C47.4234 133.459 14.5402 133.459 19.6983 154.105C11.9611 147.008 1 154.258 1 162H96.4259C92.5573 155.548 84.82 152.968 76.438 154.75C78.3723 148.943 71.2799 143.782 66.1217 149.588Z" fill="#94CA62" stroke="#94CA62" stroke-linejoin="round"/>
<path d="M1 162C1 154.258 11.9611 147.008 19.6983 154.105C14.5402 133.459 47.4234 133.459 47.4234 146.363C50.6473 139.266 66.1217 139.266 66.1217 149.588C71.2799 143.782 78.3724 148.943 76.438 154.75C84.3726 153.063 91.7294 155.285 95.7738 161" stroke="#7FAD54" stroke-width="1.5" stroke-linecap="round" stroke-linejoin="round"/>
<path d="M118.993 153.394C116.414 145.007 104.163 146.943 102.874 153.394C94.4916 149.523 88.6887 154.258 88.6887 162H131.244C131.244 156.194 127.375 151.613 118.993 153.394Z" fill="#94CA62" stroke="#94CA62" stroke-linejoin="round"/>
<path d="M131.244 162C131.244 156.194 127.375 151.613 118.993 153.394C116.414 145.007 104.163 146.943 102.874 153.394C94.4916 149.523 88.6887 154.258 88.6887 162" stroke="#7FAD54" stroke-width="1.5" stroke-linecap="round" stroke-linejoin="round"/>
</svg>
