<svg width="30" height="30" viewBox="0 0 30 30" fill="none" xmlns="http://www.w3.org/2000/svg">
<path fill-rule="evenodd" clip-rule="evenodd" d="M15 30C23.2843 30 30 23.2843 30 15C30 6.71573 23.2843 0 15 0C6.71573 0 0 6.71573 0 15C0 23.2843 6.71573 30 15 30Z" fill="#E8E8E8"/>
<mask id="mask0" mask-type="alpha" maskUnits="userSpaceOnUse" x="0" y="0" width="30" height="30">
<path fill-rule="evenodd" clip-rule="evenodd" d="M15 30C23.2843 30 30 23.2843 30 15C30 6.71573 23.2843 0 15 0C6.71573 0 0 6.71573 0 15C0 23.2843 6.71573 30 15 30Z" fill="#E8E8E8"/>
</mask>
<g mask="url(#mask0)">
<path fill-rule="evenodd" clip-rule="evenodd" d="M16.7092 21.0819C19.5088 19.8425 21.0438 15.6613 21.0438 12.3568C21.0438 8.43177 18.8783 5.24994 15.0002 5.24994C11.1221 5.24994 8.9566 8.43177 8.9566 12.3568C8.9566 15.6611 10.4914 19.8421 13.2908 21.0817C13.1752 21.9538 12.7475 22.7359 11.8082 22.7359C11.8082 22.7359 7.65445 23.0635 5.42471 25.3202C3.84805 26.916 3.75 30.0001 3.75 30.0001H26.25C26.25 30.0001 26.1519 26.916 24.5753 25.3202C22.3456 23.0635 18.1918 22.7359 18.1918 22.7359C17.2525 22.7359 16.8249 21.954 16.7092 21.0819Z" fill="#979797"/>
</g>
</svg>
