<svg width="181" height="155" viewBox="0 0 181 155" fill="none" xmlns="http://www.w3.org/2000/svg">
<path d="M137.236 48.1627H114.555C114.555 39.9573 101.672 31.8908 94.2473 43.4399C91.2511 21.1086 53.1699 28.2872 64.1366 54.7747C55.7336 44.3845 38.7997 54.7747 43.8294 66.3343H22.9924" stroke="#979797" stroke-width="1.5" stroke-linecap="round" stroke-linejoin="round"/>
<ellipse cx="122.865" cy="72.5047" rx="2.15554" ry="2.1536" fill="#7FAD54"/>
<path d="M79.0363 131.106H101.188C101.188 114.227 139.182 112.915 131.299 142.44C139.702 132.05 156.636 142.44 151.606 154H172.443" stroke="#979797" stroke-width="1.5" stroke-linecap="round" stroke-linejoin="round"/>
<path d="M108.495 69.6332L122.866 72.5047L108.495 106.962M108.495 69.6332V106.962M108.495 69.6332L25.1479 105.527V147.881L108.495 106.962" stroke="#7FAD54" stroke-width="1.5" stroke-linejoin="round"/>
<path d="M108.495 106.962V69.6332L25.1479 105.527V147.881L108.495 106.962Z" fill="#94CA62" stroke="#7FAD54" stroke-width="1.5" stroke-linejoin="round"/>
<path d="M172.443 48.0972L112.806 61.7367L126.458 65.5379L142.265 61.7367L135.08 67.9386L156.635 73.9405L172.443 48.0972Z" fill="#94CA62" stroke="#7FAD54" stroke-width="1.5" stroke-linejoin="round"/>
<path d="M133.643 81.1191L140.828 73.9405L133.643 71.7869V81.1191Z" fill="#7FAD54"/>
<path d="M140.828 73.9405L141.182 74.2942C141.306 74.1697 141.356 73.989 141.313 73.8183C141.27 73.6476 141.14 73.5121 140.972 73.4615L140.828 73.9405ZM133.643 81.1191H133.143C133.143 81.3213 133.265 81.5036 133.452 81.581C133.638 81.6585 133.853 81.6158 133.996 81.4729L133.643 81.1191ZM133.643 71.7869L133.787 71.3079C133.635 71.2625 133.471 71.2914 133.345 71.3857C133.218 71.4801 133.143 71.6288 133.143 71.7869H133.643ZM140.475 73.5868L133.29 80.7654L133.996 81.4729L141.182 74.2942L140.475 73.5868ZM134.143 81.1191V71.7869H133.143V81.1191H134.143ZM133.5 72.2658L140.685 74.4194L140.972 73.4615L133.787 71.3079L133.5 72.2658Z" fill="#7FAD54"/>
<path d="M152.228 81.6597L141.026 94.541M129.825 107.422L135.426 100.982" stroke="#7FAD54" stroke-width="1.5" stroke-linecap="round" stroke-linejoin="round"/>
<path d="M71.2064 72.778L87.6584 68.1975M104.11 63.6171L95.8844 65.9073" stroke="#7FAD54" stroke-width="1.5" stroke-linecap="round" stroke-linejoin="round"/>
<ellipse cx="125.74" cy="13.6395" rx="13.6517" ry="13.6395" fill="#FAF57A"/>
<path d="M45.9849 149.317H74.7253M80.4734 149.317H89.0956" stroke="#979797" stroke-width="1.5" stroke-linecap="round" stroke-linejoin="round"/>
<path d="M0.675694 82.3295C-0.068159 79.5559 6.50019 76.3111 7.80196 81.1649C6.5002 76.3111 13.8124 75.8399 14.5563 78.6135" stroke="#E8E8E8" stroke-linecap="round" stroke-linejoin="round"/>
<path d="M153 122.53C152.256 119.757 158.825 116.512 160.126 121.366C158.825 116.512 166.137 116.041 166.881 118.814" stroke="#E8E8E8" stroke-linecap="round" stroke-linejoin="round"/>
<path d="M165.934 98.1226C165.19 95.349 171.758 92.1042 173.06 96.9581C171.758 92.1042 179.07 91.633 179.814 94.4067" stroke="#E8E8E8" stroke-linecap="round" stroke-linejoin="round"/>
<path d="M54.6069 103.113V113.652M54.6069 124.191V113.652M63.9476 99.5088V109.834M63.9476 119.884V109.834M54.6069 113.652L63.9476 109.834" stroke="white" stroke-width="1.5" stroke-linecap="round" stroke-linejoin="round"/>
<path d="M69.6956 105.527V116.768M69.6956 102.716V102.014" stroke="white" stroke-width="1.5" stroke-linecap="round"/>
<path d="M76.1621 110.216V94.7586M76.1621 113.026V113.729" stroke="white" stroke-width="1.5" stroke-linecap="round"/>
<path d="M81.9104 107.344V91.8872M81.9104 110.155V110.857" stroke="white" stroke-width="1.5" stroke-linecap="round"/>
</svg>
