<svg width="167" height="48" viewBox="0 0 167 48" fill="none" xmlns="http://www.w3.org/2000/svg">
<path d="M66.8927 19.4498C65.9702 19.4498 65.1499 19.6371 64.4309 20.0108C63.7105 20.3843 63.0913 20.9027 62.5724 21.5635C62.0542 22.2253 61.6587 23.0151 61.3845 23.9351C61.1104 24.8561 60.9745 25.8759 60.9745 26.9977C60.9745 28.0904 61.1104 29.0967 61.3845 30.0164C61.6587 30.9364 62.0542 31.7272 62.5724 32.388C63.0913 33.0501 63.7105 33.574 64.4309 33.9621C65.1499 34.3503 65.9702 34.5444 66.8927 34.5444C67.7567 34.5444 68.5837 34.3795 69.376 34.0484C70.1681 33.7187 70.8515 33.2362 71.4279 32.6036C72.0041 31.972 72.4648 31.1809 72.8099 30.232C73.1559 29.2827 73.3291 28.2048 73.3291 26.9977C73.3291 25.8185 73.1482 24.7618 72.7886 23.8273C72.4278 22.8939 71.9536 22.1018 71.3637 21.4557C70.7728 20.8083 70.0894 20.3124 69.3119 19.9682C68.5343 19.6227 67.7275 19.4498 66.8927 19.4498ZM66.4602 37.9952C64.9343 37.9952 63.5803 37.7215 62.4002 37.1752C61.2194 36.6299 60.2249 35.867 59.4194 34.8899C58.6126 33.9128 58.0079 32.7483 57.6057 31.3964C57.2011 30.0456 57 28.5793 57 26.9977C57 25.5022 57.2236 24.0932 57.6699 22.7706C58.1159 21.449 58.7495 20.2845 59.5711 19.2769C60.3914 18.2718 61.3778 17.473 62.5297 16.8841C63.6812 16.2951 64.977 16 66.4175 16C68.0591 16 69.412 16.2807 70.4782 16.8404C71.5423 17.4012 72.565 18.2718 73.5447 19.4498L73.9762 16.4308H77V48H73.1132V34.8899C72.7671 35.3499 72.3199 35.774 71.774 36.1621C71.2265 36.5503 70.6503 36.8811 70.0457 37.1537C69.4413 37.4274 68.8289 37.6349 68.2097 37.7786C67.5905 37.9223 67.0074 37.9952 66.4602 37.9952Z" fill="#1A7DA9"/>
<path d="M86 37H82V16L86 19.6282V37Z" fill="#1A7DA9"/>
<path d="M97.5344 37.8418C94.4111 37.8418 91.9588 37.2142 90.1782 35.9589L90.6602 32.1487C91.2433 32.674 92.1409 33.1718 93.3529 33.6375C94.5638 34.1046 95.8999 34.3381 97.3601 34.3381C100.22 34.3381 101.651 33.4486 101.651 31.6669C101.651 30.0622 100.22 28.8798 97.3601 28.1199C96.4843 27.9161 95.6583 27.6757 94.886 27.3978C94.1115 27.121 93.419 26.7566 92.805 26.3031C92.1921 25.851 91.6888 25.2746 91.2947 24.5729C90.9006 23.8724 90.6739 22.9975 90.6156 21.9464C90.6156 20.1068 91.2729 18.5747 92.5862 17.348C93.9008 16.1224 95.9293 15.5094 98.6734 15.5094C100.629 15.5094 102.57 15.9765 104.497 16.9106L104.016 20.5009C102.497 19.217 100.745 18.5747 98.761 18.5747C95.9876 18.5747 94.6013 19.5453 94.6013 21.4862C94.6013 21.9566 94.673 22.3528 94.8199 22.6764C94.9658 23.001 95.2277 23.287 95.6081 23.5365C95.9876 23.7871 96.4979 24.0295 97.1402 24.2654C97.7826 24.5 98.6005 24.7632 99.5926 25.0547C100.205 25.2302 100.87 25.4716 101.585 25.7781C102.3 26.0846 102.964 26.4855 103.577 26.982C104.191 27.4787 104.701 28.0916 105.11 28.8205C105.519 29.5505 105.723 30.4266 105.723 31.4484C105.723 32.1487 105.606 32.8789 105.373 33.6375C105.139 34.3974 104.716 35.083 104.103 35.6957C103.49 36.3086 102.651 36.82 101.585 37.2278C100.519 37.6369 99.1688 37.8418 97.5344 37.8418Z" fill="#1A7DA9"/>
<path d="M119.034 37.8418C117.311 37.8418 115.794 37.5571 114.48 36.9875C113.167 36.4181 112.049 35.6298 111.13 34.6228C110.211 33.616 109.517 32.4337 109.05 31.0758C108.583 29.7192 108.35 28.2372 108.35 26.6311C108.35 24.9967 108.583 23.5011 109.05 22.1435C109.517 20.7856 110.195 19.6111 111.087 18.618C111.977 17.6259 113.086 16.8605 114.414 16.3194C115.742 15.7794 117.267 15.5094 118.99 15.5094C121.851 15.5094 124.055 15.9332 125.602 16.7797L124.989 20.3267C123.179 19.4505 121.326 19.0121 119.428 19.0121C117.063 19.0121 115.297 19.6694 114.129 20.9826C112.962 22.2959 112.378 24.1788 112.378 26.6311C112.378 29.0837 112.962 30.9881 114.129 32.3458C115.297 33.7036 117.063 34.3824 119.428 34.3824C121.354 34.3824 123.222 33.944 125.033 33.0681L125.559 36.221C123.953 37.3018 121.778 37.8418 119.034 37.8418Z" fill="#1A7DA9"/>
<path d="M147 37.5594H143.462L143.019 35.1834C141.663 37.0617 139.659 38 137.005 38C131.668 38 129 34.847 129 28.5393V16H132.981V27.4394C132.981 32.1332 134.661 34.4794 138.022 34.4794C140.322 34.4794 141.987 33.659 143.019 32.0153V16L147 19.8768V37.5594Z" fill="#1A7DA9"/>
<path d="M158.486 37.8418C155.363 37.8418 152.911 37.2142 151.13 35.9589L151.612 32.1487C152.195 32.674 153.093 33.1718 154.305 33.6375C155.516 34.1046 156.852 34.3381 158.312 34.3381C161.172 34.3381 162.603 33.4486 162.603 31.6669C162.603 30.0622 161.172 28.8798 158.312 28.1199C157.436 27.9161 156.61 27.6757 155.838 27.3978C155.063 27.121 154.371 26.7566 153.757 26.3031C153.144 25.851 152.641 25.2746 152.247 24.5729C151.853 23.8724 151.626 22.9975 151.568 21.9464C151.568 20.1068 152.225 18.5747 153.538 17.348C154.853 16.1224 156.881 15.5094 159.625 15.5094C161.581 15.5094 163.522 15.9765 165.449 16.9106L164.968 20.5009C163.449 19.217 161.697 18.5747 159.713 18.5747C156.94 18.5747 155.553 19.5453 155.553 21.4862C155.553 21.9566 155.625 22.3528 155.772 22.6764C155.918 23.001 156.18 23.287 156.56 23.5365C156.94 23.7871 157.45 24.0295 158.092 24.2654C158.735 24.5 159.552 24.7632 160.545 25.0547C161.157 25.2302 161.822 25.4716 162.537 25.7781C163.252 26.0846 163.916 26.4855 164.529 26.982C165.143 27.4787 165.653 28.0916 166.062 28.8205C166.471 29.5505 166.675 30.4266 166.675 31.4484C166.675 32.1487 166.558 32.8789 166.325 33.6375C166.091 34.3974 165.668 35.083 165.055 35.6957C164.442 36.3086 163.603 36.82 162.537 37.2278C161.471 37.6369 160.121 37.8418 158.486 37.8418Z" fill="#1A7DA9"/>
<path d="M12.893 -2.22524e-06C5.80168 -2.22524e-06 -5.25074e-07 5.84866 -5.25074e-07 12.9968V32.366C-5.25074e-07 39.5142 5.80168 45.3628 12.893 45.3628H32.1073C33.5111 45.3628 35.2066 45.4317 35.7413 45.4753C36.5497 45.4648 40.7786 45.8482 42.4163 47.8641C43.2023 48.8314 44.6496 44.3779 43.6387 42.6574L42.3232 40.1893C43.9773 38.0037 45 35.3111 45 32.366V12.9968C45 5.84866 39.1983 -2.22524e-06 32.1073 -2.22524e-06H12.893ZM6.02353 29.3069V15.9842C6.02353 10.5127 10.4644 6.03629 15.8923 6.03629H29.108C34.5356 6.03629 38.9767 10.5127 38.9767 15.9842V28.7156C38.9754 28.9053 38.9689 29.2199 38.9449 29.6178C38.9322 30.0282 38.8852 30.4295 38.8234 30.8266C38.7927 31.0555 38.6829 32.0325 38.3391 32.7255C36.8106 32.1737 33.1323 33.3673 33.7316 33.6771C35.9762 34.8373 38.5661 40.697 38.5661 40.697C36.6667 39.2467 31.3155 39.2545 29.108 39.2545H15.8923C10.4644 39.2545 6.02353 34.7784 6.02353 29.3069Z" fill="url(#paint0_linear)"/>
<defs>
<linearGradient id="paint0_linear" x1="4.95313e-05" y1="23.9999" x2="45" y2="23.9999" gradientUnits="userSpaceOnUse">
<stop stop-color="#94CA62"/>
<stop offset="0.996612" stop-color="#20AEB8"/>
<stop offset="1" stop-color="#20AEB8"/>
</linearGradient>
</defs>
</svg>
